# xmcd CD database file
#
# Track frame offsets:
#	182
#	20782
#	44502
#	65282
#	88095
#	110127
#	134845
#	158617
#	182772
#	199307
#
# Disc length: 2912 seconds
#
# Revision: 1
# Processed by: cddbd v1.5.1PL0 Copyright (c) Steve Scherf et al.
# Submitted via: CDex 1.50Beta7
#
DISCID=950b5e0a
DTITLE=Manu Dibango - Lamastabastani
DYEAR=1995
DGENRE=Ethnic
TTITLE0=Elie
TTITLE1=Elongi
TTITLE2=Nsi sim nti
TTITLE3=Mouna maria
TTITLE4=Edubé na loba
TTITLE5=Lombho!
TTITLE6=Nobody I Know I
TTITLE7=Nobody I Know II
TTITLE8=Moussina
TTITLE9=L'hymne a l'amour
EXTD=YEAR: 1995
EXTT0=
EXTT1=
EXTT2=
EXTT3=
EXTT4=
EXTT5=
EXTT6=
EXTT7=
EXTT8=
EXTT9=
PLAYORDER=
